<svg width="15" height="14" viewBox="0 0 15 14" fill="none" xmlns="http://www.w3.org/2000/svg">
<path d="M6.36498 1.36487C6.66433 0.443563 7.96774 0.443561 8.2671 1.36487L9.17376 4.1553C9.30764 4.56732 9.69159 4.84628 10.1248 4.84628H13.0588C14.0276 4.84628 14.4303 6.0859 13.6466 6.6553L11.273 8.37988C10.9225 8.63452 10.7758 9.08589 10.9097 9.49791L11.8163 12.2883C12.1157 13.2097 11.0612 13.9758 10.2775 13.4064L7.90383 11.6818C7.55334 11.4272 7.07874 11.4272 6.72826 11.6818L4.35458 13.4064C3.57086 13.9758 2.51638 13.2097 2.81573 12.2883L3.7224 9.49791C3.85627 9.08589 3.70961 8.63452 3.35913 8.37988L0.985448 6.6553C0.201735 6.0859 0.604508 4.84628 1.57323 4.84628H4.50726C4.94049 4.84628 5.32444 4.56732 5.45832 4.1553L6.36498 1.36487Z" fill="#57532D"/>
</svg>
