<svg width="14" height="14" viewBox="0 0 14 14" fill="none" xmlns="http://www.w3.org/2000/svg">
<path d="M6.00634 1.36487C6.30569 0.443563 7.6091 0.443561 7.90845 1.36487L8.81512 4.1553C8.94899 4.56732 9.33295 4.84628 9.76618 4.84628H12.7002C13.6689 4.84628 14.0717 6.0859 13.288 6.6553L10.9143 8.37988C10.5638 8.63452 10.4172 9.08589 10.551 9.49791L11.4577 12.2883C11.7571 13.2097 10.7026 13.9758 9.91886 13.4064L7.54518 11.6818C7.1947 11.4272 6.7201 11.4272 6.36961 11.6818L3.99593 13.4064C3.21222 13.9758 2.15774 13.2097 2.45709 12.2883L3.36376 9.49791C3.49763 9.08589 3.35097 8.63452 3.00048 8.37988L0.626806 6.6553C-0.156908 6.0859 0.245866 4.84628 1.21459 4.84628H4.14862C4.58184 4.84628 4.9658 4.56732 5.09968 4.1553L6.00634 1.36487Z" fill="#FFE604"/>
</svg>
